<svg width="0" height="0" class="hidden">

	<symbol xmlns="http://www.w3.org/2000/svg" viewBox="0 0 16 13" id="twitter"><path d="M16 1.5c-.6.3-1.2.4-1.9.5.7-.4 1.2-1 1.4-1.8-.6.4-1.3.6-2.1.8-.6-.6-1.5-1-2.4-1-1.7 0-3.2 1.5-3.2 3.3 0 .3 0 .5.1.7A9.2 9.2 0 0 1 1.1.6c-.3.5-.4 1-.4 1.7 0 1.1.6 2.1 1.5 2.7-.5 0-1-.2-1.5-.4 0 1.6 1.1 2.9 2.6 3.2-.3.1-.6.1-.9.1-.2 0-.4 0-.6-.1.4 1.3 1.6 2.3 3.1 2.3-1.1.9-2.5 1.4-4.1 1.4H0c1.5.9 3.2 1.5 5 1.5 6 0 9.3-5 9.3-9.3v-.4c.7-.5 1.3-1.1 1.7-1.8Z"/></symbol>

	<symbol xmlns="http://www.w3.org/2000/svg" viewBox="0 0 16 16" id="facebook"><path d="M16 8.05a8 8 0 1 0-9.25 7.9v-5.59H4.72V8.05h2.03V6.29a2.82 2.82 0 0 1 3.02-3.12c.6.01 1.2.06 1.8.16V5.3h-1.02a1.16 1.16 0 0 0-1.3 1.25v1.5h2.22l-.35 2.31H9.25v5.6A8 8 0 0 0 16 8.04Z"/></symbol>

	<symbol xmlns="http://www.w3.org/2000/svg" viewBox="0 0 16 16" id="instagram"><path d="M12.14 4.85a.96.96 0 1 0 0-1.92.96.96 0 0 0 0 1.92Z"/><path d="M8 12a4 4 0 1 1 0-8 4 4 0 0 1 0 8Zm0-6a2 2 0 1 0 0 4 2 2 0 0 0 0-4Z"/><path d="M12 16H4c-2.06 0-4-1.94-4-4V4c0-2.06 1.94-4 4-4h8c2.06 0 4 1.94 4 4v8c0 2.06-1.94 4-4 4ZM4 2c-.94 0-2 1.06-2 2v8c0 .95 1.05 2 2 2h8c.94 0 2-1.06 2-2V4c0-.94-1.06-2-2-2H4Z"/></symbol>

	<symbol xmlns="http://www.w3.org/2000/svg" viewBox="0 0 32 32" id="rows-view"><rect x="5.33" y="6.67" width="21.33" height="8" rx="1.5"/><rect x="5.33" y="17.33" width="21.33" height="8" rx="1.5"/></symbol>

	<symbol xmlns="http://www.w3.org/2000/svg" viewBox="0 0 32 32" id="grid-view"><rect x="5.33" y="5.33" width="9.33" height="9.33" rx="1.5"/><path fill-rule="evenodd" clip-rule="evenodd" d="M17.33 6.83c0-.83.67-1.5 1.5-1.5h6.34c.82 0 1.5.67 1.5 1.5v6.34c0 .83-.68 1.5-1.5 1.5h-6.34a1.5 1.5 0 0 1-1.5-1.5V6.83Zm-12 12c0-.83.67-1.5 1.5-1.5h6.34c.82 0 1.5.67 1.5 1.5v6.34c0 .83-.68 1.5-1.5 1.5H6.83a1.5 1.5 0 0 1-1.5-1.5v-6.34Zm13.5-1.5c-.83 0-1.5.67-1.5 1.5v6.34c0 .83.67 1.5 1.5 1.5h6.34c.82 0 1.5-.67 1.5-1.5v-6.34c0-.83-.68-1.5-1.5-1.5h-6.34Z"/></symbol>

	<symbol xmlns="http://www.w3.org/2000/svg" viewBox="0 0 32 28" id="heart"><path d="M27.84 4.12A7.38 7.38 0 0 0 22.63 2a7.48 7.48 0 0 0-5.21 2.12L16 5.52l-1.42-1.4a7.44 7.44 0 0 0-10.42 0 7.18 7.18 0 0 0 0 10.24l1.42 1.4L16 26l10.42-10.24 1.42-1.4A7.23 7.23 0 0 0 30 9.24a7.13 7.13 0 0 0-2.16-5.12v0Z" stroke-width="2.5" stroke-linecap="round" stroke-linejoin="round"/></symbol>

	<symbol xmlns="http://www.w3.org/2000/svg" viewBox="0 0 8 15" id="arrow-left"><path d="m7 13.5-6-6 6-6" stroke-width="2" stroke-linecap="round" stroke-linejoin="round"/></symbol>

	<symbol xmlns="http://www.w3.org/2000/svg" viewBox="0 0 8 15" id="arrow-right"><path d="m1 13.5 6-6-6-6" stroke-width="2" stroke-linecap="round" stroke-linejoin="round"/></symbol>

	<symbol xmlns="http://www.w3.org/2000/svg" viewBox="0 0 14 14" id="close"><path d="M12.31 1 6.66 6.66m0 0L1 12.3m5.66-5.65 5.65 5.65M6.66 6.66 1 1" fill="none" stroke-width="2" stroke-linecap="round"/></symbol>

</svg>